PathFileType	4	(X/Y/Z)	/Users/niels/Desktop/University/Third Semester/Perception and Action/Exam/Gymnastics Motion Tracking/Code for Gym Tracking/Analyzed Data/Webcam_Backflip/id4_3_trajectory_Sports2D/id4_3_trajectory_Sports2D_px_person00.trc
DataRate	CameraRate	NumFrames	NumMarkers	Units	OrigDataRate	OrigDataStartFrame	OrigNumFrames
29.714285714285715	29.714285714285715	11	22	m	29.714285714285715	52	105
Frame#	Time	Hip			RHip			RKnee			RAnkle			RBigToe			RSmallToe			RHeel			LHip			LKnee			LAnkle			LBigToe			LSmallToe			LHeel			Neck			Head			Nose			RShoulder			RElbow			RWrist			LShoulder			LElbow			LWrist		
		X1	Y1	Z1	X2	Y2	Z2	X3	Y3	Z3	X4	Y4	Z4	X5	Y5	Z5	X6	Y6	Z6	X7	Y7	Z7	X8	Y8	Z8	X9	Y9	Z9	X10	Y10	Z10	X11	Y11	Z11	X12	Y12	Z12	X13	Y13	Z13	X14	Y14	Z14	X15	Y15	Z15	X16	Y16	Z16	X17	Y17	Z17	X18	Y18	Z18	X19	Y19	Z19	X20	Y20	Z20	X21	Y21	Z21	X22	Y22	Z22
52	1.75	0.8645961412325005	-0.2981933300776757	0.0	0.8645367295650599	-0.29270646807498085	0.0	0.7380850163306544	-0.26349596795841634	0.0	0.7211551736241184	-0.17847385245741307	0.0	0.6661821001208723	-0.17928271321319847	0.0	0.6773558390625999	-0.1784057419405707	0.0	0.7203784469286648	-0.1671877101763666	0.0	0.8595268567808529	-0.2974958341029472	0.0	0.7421757684799484	-0.26762827658084204	0.0	0.7202277516048842	-0.1784498642344628	0.0	0.6679763886164728	-0.17692820902256887	0.0	0.6696925833063228	-0.17433675010109184	0.0	0.7234891057269794	-0.16213923828448137	0.0	0.7647742771230274	-0.40619789280722873	0.0	0.6977875619924789	-0.4169281161101982	0.0	0.7214925775273703	-0.38772988023467475	0.0	0.7773515810987998	-0.3924351375510336	0.0	0.8024747024949196	-0.30780207784003377	0.0	0.7566661237379334	-0.2825917215117055	0.0	0.7808924402129057	-0.4076016164506752	0.0	0.7941143042453539	-0.3189909732798767	0.0	0.7553797295637624	-0.30560680130886747	0.0
53	1.783653846153846	0.8525648407387706	-0.2884365129897039	0.0	0.8502851267564732	-0.2835554512958931	0.0	0.7186089143189068	-0.28598242015529757	0.0	0.6698819691337109	-0.20744339744192694	0.0	0.6152839190732197	-0.22408091923524023	0.0	0.6222129967115969	-0.22084919844387085	0.0	0.6644802783191379	-0.19207791755711073	0.0	0.8466699880277756	-0.2895332699397632	0.0	0.7253397318303105	-0.28772009867331416	0.0	0.6696867404620376	-0.20708092661931635	0.0	0.6162004623810258	-0.22435798527103826	0.0	0.6181756188421264	-0.22269714420714568	0.0	0.6675308111233231	-0.18771806091617393	0.0	0.7802384908782283	-0.422405276496563	0.0	0.717785196312074	-0.4534109812068706	0.0	0.730084992453217	-0.4166835620306305	0.0	0.7913437930168823	-0.4052536864175078	0.0	0.7960468090994589	-0.314813990996733	0.0	0.7389010660565345	-0.30857025889654893	0.0	0.7967011177138082	-0.420465019228696	0.0	0.7902583872303308	-0.3262974941711764	0.0	0.7427476957851976	-0.329779625532074	0.0
54	1.8173076923076923	0.8375342861029066	-0.2854839692164844	0.0	0.8332150498326258	-0.28160458514003195	0.0	0.7026351469176472	-0.31368792684049296	0.0	0.6267407090633433	-0.25019642706309914	0.0	0.5775442476383327	-0.2814649699418993	0.0	0.5800547423585778	-0.2759373052314984	0.0	0.6169771191801662	-0.23260689157322598	0.0	0.8315318376575033	-0.28826445216881535	0.0	0.7116306127464826	-0.31330715427797773	0.0	0.6279659807914064	-0.24970179203379037	0.0	0.5805384822373155	-0.28450799187850895	0.0	0.5825419453803931	-0.28368083756033136	0.0	0.6204555488653323	-0.22976313889055192	0.0	0.7969079447176698	-0.4356314213150806	0.0	0.7438577901390231	-0.48465161451091826	0.0	0.7440414237525758	-0.4434682245580713	0.0	0.8064562384202899	-0.41617895981382386	0.0	0.7921431635013444	-0.3250662226820817	0.0	0.7289185026974058	-0.33811097373245746	0.0	0.8124251791530702	-0.43053142162501	0.0	0.7897900303494425	-0.33749016671423104	0.0	0.737801537934474	-0.3569059658262741	0.0
55	1.8509615384615383	0.8197486065656421	-0.29034492466559547	0.0	0.8138048006504917	-0.2871931858138329	0.0	0.6893336843538992	-0.3448479569438611	0.0	0.593103937322358	-0.30338712101728676	0.0	0.5532022998728142	-0.34711363338095463	0.0	0.5512947184802709	-0.33934777795237026	0.0	0.5793244483340306	-0.28590882238074194	0.0	0.8144580171748361	-0.29455221408472776	0.0	0.7005706515983855	-0.3442578540234177	0.0	0.5976162793536504	-0.30411241193979727	0.0	0.5620449309595889	-0.3530380751098186	0.0	0.5640766320157072	-0.35235425335708376	0.0	0.5853199617293124	-0.2858978486792466	0.0	0.8131048736050097	-0.4456542577144141	0.0	0.77323608483469	-0.5091621299870202	0.0	0.7615981848635114	-0.4663738172001753	0.0	0.8212968560659815	-0.4249212152458486	0.0	0.7915305703307458	-0.33780593803243686	0.0	0.7280995013860723	-0.36807235443232417	0.0	0.8265989235811192	-0.4382906156839221	0.0	0.7926283083514107	-0.3524522075821929	0.0	0.7409445831320759	-0.3850041225809418	0.0
56	1.8846153846153846	0.7994358626739095	-0.3039760233598842	0.0	0.792344282945658	-0.300682137806142	0.0	0.6777980235514526	-0.3785862757386628	0.0	0.5692673762322155	-0.3640214039937042	0.0	0.5415278722571772	-0.4172678839670038	0.0	0.5352967683413808	-0.40767834399892017	0.0	0.5521579877759625	-0.34890993566087186	0.0	0.7955662110526469	-0.309386389881003	0.0	0.6920677496928691	-0.3805271206628795	0.0	0.5799609916912871	-0.36796734466111936	0.0	0.5597002195649138	-0.4257814607085658	0.0	0.561815938100525	-0.4245463440043434	0.0	0.5640450112301051	-0.3531107080414641	0.0	0.8271148344570971	-0.45291192790493223	0.0	0.802776369851296	-0.5268929702644665	0.0	0.7809046306229683	-0.48465681767938545	0.0	0.8340907810986292	-0.4316332752702654	0.0	0.7936592530501676	-0.35199827760842833	0.0	0.7361905973522991	-0.3958285745150409	0.0	0.8378004887988884	-0.4446886334346753	0.0	0.7973692688245846	-0.3703871948265578	0.0	0.7511367519137125	-0.41192670494981276	0.0
57	1.9182692307692306	0.7772804540183103	-0.3267587449206814	0.0	0.7695120572023322	-0.3223391748193402	0.0	0.6675638148745454	-0.415253027517353	0.0	0.5549551927466223	-0.4297886391688263	0.0	0.5412179753005554	-0.48894573586219875	0.0	0.5310656415309815	-0.47847896290457287	0.0	0.5357029768183937	-0.4188065729179041	0.0	0.7754335079077571	-0.333339730846047	0.0	0.6862141302920404	-0.4217857110977592	0.0	0.5746778630814546	-0.43818977296782136	0.0	0.570439665844511	-0.49879846920788506	0.0	0.5725372690494234	-0.4968081489642112	0.0	0.5567780642289705	-0.4278570645316574	0.0	0.8372847079198149	-0.45839310277507783	0.0	0.8297331180649116	-0.5388685277845274	0.0	0.800345920342182	-0.4986811350901702	0.0	0.8430033288208277	-0.43676578876938904	0.0	0.7967065359125121	-0.36698013769991233	0.0	0.7514896937361739	-0.4207022096295897	0.0	0.8447213923563479	-0.45083979842870914	0.0	0.8017220120317938	-0.39043135251414796	0.0	0.7666007129380779	-0.4368444869013586	0.0
58	1.9519230769230769	0.7544810656423536	-0.3582800661037826	0.0	0.7464997891983876	-0.35232832510899253	0.0	0.6589200745287014	-0.45605437241662095	0.0	0.5497424462680129	-0.4991365070438307	0.0	0.5504744844025996	-0.5603199468288277	0.0	0.5372114633840833	-0.5502236207457197	0.0	0.5297379996615218	-0.4933476021940141	0.0	0.7551193996623546	-0.3659119824810504	0.0	0.6826835237739378	-0.4672478215006743	0.0	0.5795540292725607	-0.5110735434145864	0.0	0.5896121782948063	-0.5693255146887133	0.0	0.5913523974547249	-0.5667562137804362	0.0	0.5612629975973491	-0.5062119023665176	0.0	0.8423462514872279	-0.46350560907372373	0.0	0.8522304303877389	-0.5466804027891817	0.0	0.8183488704418402	-0.5096214794681803	0.0	0.846619641691926	-0.4413655386908343	0.0	0.7983142955353397	-0.3830294933608416	0.0	0.7709675629067051	-0.44351659714666886	0.0	0.8463542322299602	-0.4578457714701592	0.0	0.8033515113987127	-0.41189545376948905	0.0	0.7852991465901895	-0.46015889714258634	0.0
59	1.985576923076923	0.7323914577149006	-0.3976475070286125	0.0	0.7246092309029859	-0.3906501650551463	0.0	0.6527600156278682	-0.5021746571323334	0.0	0.5529126315802273	-0.5708043784330596	0.0	0.5668147839550137	-0.6306021375952112	0.0	0.5515131182450179	-0.6219622871252841	0.0	0.5332601096463317	-0.5705569735028774	0.0	0.7356513242500454	-0.4056925353337249	0.0	0.6806740085917284	-0.5160011922410724	0.0	0.5909301758261187	-0.5833791727879413	0.0	0.6121518891580235	-0.6364146013108223	0.0	0.6130553571921892	-0.6333654236120383	0.0	0.5732019533372248	-0.5844260982179724	0.0	0.8418420096342826	-0.4700310925318253	0.0	0.8691555030570144	-0.552155079695097	0.0	0.8332525976959967	-0.5190749908886632	0.0	0.8443903370442044	-0.4473830315130403	0.0	0.7966390977009312	-0.40150737872297415	0.0	0.7909908281366309	-0.46547798199542545	0.0	0.842425694125667	-0.4667284533966665	0.0	0.8008495202111701	-0.4341311796505791	0.0	0.8046964846853257	-0.48216929884911824	0.0
60	2.019230769230769	0.7122812955438714	-0.44372917625523894	0.0	0.7050361145551066	-0.43669279003120953	0.0	0.6499143334981767	-0.5538382836102512	0.0	0.5628834806418799	-0.6431411664689125	0.0	0.5870787259117911	-0.6992855133302572	0.0	0.5708921294408209	-0.6926564242428895	0.0	0.5441382965811364	-0.6481310092229721	0.0	0.7179284137335646	-0.4511645908716448	0.0	0.6794251047625309	-0.5673880311344235	0.0	0.6047983444105585	-0.6532367044067549	0.0	0.6337303468289782	-0.7004518430054528	0.0	0.6333866725853522	-0.6965613832718663	0.0	0.5877545866451178	-0.6597667847338468	0.0	0.836260976636922	-0.47998286518450584	0.0	0.8800250021871797	-0.5570512766923048	0.0	0.843597819609823	-0.5288952642870116	0.0	0.8367993740972037	-0.4573465038691121	0.0	0.7911348902381714	-0.4246115488704814	0.0	0.8085220530229082	-0.48796130764331996	0.0	0.8336877590018071	-0.4784958684325337	0.0	0.7943823730104024	-0.45693985420305744	0.0	0.8218741434143618	-0.5029390622339902	0.0
61	2.0528846153846154	0.6951525655537945	-0.4949305092785841	0.0	0.6886578753410909	-0.4887628566464842	0.0	0.6504479701036541	-0.6097855352943528	0.0	0.5769469413633039	-0.7138144699018748	0.0	0.6077605367390437	-0.7654074741991	0.0	0.5918016133622297	-0.7607492782955253	0.0	0.5591567729953497	-0.7231006854659456	0.0	0.7028006478332915	-0.5009830345135172	0.0	0.6785412338056497	-0.6206817058864659	0.0	0.6177560143552422	-0.7197513133945019	0.0	0.6511878950322674	-0.7620909370307788	0.0	0.6494427165966703	-0.7563349594845415	0.0	0.6008857386059046	-0.7304496209855065	0.0	0.8266045177887841	-0.4948665533269627	0.0	0.8848747616613314	-0.562456233930849	0.0	0.8484863269942133	-0.5407506668182973	0.0	0.824802924661091	-0.4733424901407818	0.0	0.7828133399050623	-0.4548251782742602	0.0	0.8219027370859	-0.5129168326049139	0.0	0.8215869549648737	-0.49403267828445124	0.0	0.7859352464691528	-0.4816986626087322	0.0	0.8350125768326299	-0.5235777190377099	0.0
62	2.0865384615384612	0.6814626566261935	-0.5487103068621401	0.0	0.675571680197464	-0.5438591075118314	0.0	0.6533895870519523	-0.6672689198281961	0.0	0.5916372665241895	-0.7799108016144268	0.0	0.6254791591405054	-0.827259188066747	0.0	0.6106402342618842	-0.8242052254071894	0.0	0.5745992103287245	-0.7919870082743232	0.0	0.6908619175145277	-0.5532599477067359	0.0	0.6780047772634661	-0.6743250201092775	0.0	0.6274890522362222	-0.7817420626818449	0.0	0.6626580336280398	-0.8211048294116673	0.0	0.659707640684217	-0.8118134163370454	0.0	0.6100733976326682	-0.7946254896425269	0.0	0.8141408407050248	-0.5148327610358585	0.0	0.8841386546516098	-0.5684611425424919	0.0	0.8478574277861158	-0.5554451287618902	0.0	0.8092923808269195	-0.49589409576100246	0.0	0.7738743988090325	-0.49379293849559547	0.0	0.83088488616025	-0.5429078912058437	0.0	0.8078770440998521	-0.5137282368182938	0.0	0.7789765724900025	-0.5111247169750798	0.0	0.8445928005969527	-0.5467285519805216	0.0
